REM DIRINDEX 1\2\5,1\2\6,1\2\7,1\2\8,1\3\9,1\3\10,1\3\11,1\4\12,1\4\13,1\4\14,1\4\15,1\4\16
REM DIRNAME folder01,folder02,folder03,folder04,folder05,folder06,folder07,folder08,folder09,folder10,folder11,folder12,folder13,folder14,folder15,folder16
TITLE ""
FILE "1200_2_sec01_0016_0031.mp3" MP3
  TRACK 01 AUDIO
    TITLE "0:"
    INDEX 01 00:00:00
  TRACK 02 AUDIO
    TITLE "10:cjc034_00034"
    INDEX 01 00:00:17
  TRACK 03 AUDIO
    TITLE "0:"
    INDEX 01 00:01:17
  TRACK 04 AUDIO
    TITLE "9:cjc034_00035"
    INDEX 01 00:01:19
  TRACK 05 AUDIO
    TITLE "0:"
    INDEX 01 00:02:38
  TRACK 06 AUDIO
    TITLE "10:cjc034_00036"
    INDEX 01 00:03:15
  TRACK 07 AUDIO
    TITLE "0:"
    INDEX 01 00:04:09
  TRACK 08 AUDIO
    TITLE "9:cjc034_00037"
    INDEX 01 00:04:15
  TRACK 09 AUDIO
    TITLE "0:"
    INDEX 01 00:05:42
  TRACK 10 AUDIO
    TITLE "10:cjc034_00038"
    INDEX 01 00:06:20
  TRACK 11 AUDIO
    TITLE "0:"
    INDEX 01 00:07:19
  TRACK 12 AUDIO
    TITLE "9:cjc034_00039"
    INDEX 01 00:07:33
  TRACK 13 AUDIO
    TITLE "0:"
    INDEX 01 00:08:36
  TRACK 14 AUDIO
    TITLE "10:cjc034_00040"
    INDEX 01 00:09:20
  TRACK 15 AUDIO
    TITLE "0:"
    INDEX 01 00:10:06
  TRACK 16 AUDIO
    TITLE "9:cjc034_00041"
    INDEX 01 00:10:18
  TRACK 17 AUDIO
    TITLE "0:"
    INDEX 01 00:11:31
  TRACK 18 AUDIO
    TITLE "10:cjc034_00042"
    INDEX 01 00:12:11
  TRACK 19 AUDIO
    TITLE "0:"
    INDEX 01 00:13:16
  TRACK 20 AUDIO
    TITLE "9:cjc034_00043"
    INDEX 01 00:13:18
  TRACK 21 AUDIO
    TITLE "0:"
    INDEX 01 00:14:31
  TRACK 22 AUDIO
    TITLE "10:cjc034_00044"
    INDEX 01 00:15:13
  TRACK 23 AUDIO
    TITLE "0:"
    INDEX 01 00:16:12
  TRACK 24 AUDIO
    TITLE "9:cjc034_00045"
    INDEX 01 00:16:14
  TRACK 25 AUDIO
    TITLE "0:"
    INDEX 01 00:17:18
  TRACK 26 AUDIO
    TITLE "10:cjc034_00046"
    INDEX 01 00:18:03
  TRACK 27 AUDIO
    TITLE "0:"
    INDEX 01 00:19:32
  TRACK 28 AUDIO
    TITLE "9:cjc034_00047"
    INDEX 01 00:19:38
  TRACK 29 AUDIO
    TITLE "0:"
    INDEX 01 00:20:51
  TRACK 30 AUDIO
    TITLE "10:cjc034_00048"
    INDEX 01 00:21:33
  TRACK 31 AUDIO
    TITLE "0:"
    INDEX 01 00:22:30
  TRACK 32 AUDIO
    TITLE "9:cjc034_00049"
    INDEX 01 00:22:36
  TRACK 33 AUDIO
    TITLE "0:"
    INDEX 01 00:23:61
  TRACK 34 AUDIO
    TITLE "10:cjc034_00050"
    INDEX 01 00:24:45
  TRACK 35 AUDIO
    TITLE "0:"
    INDEX 01 00:26:03
  TRACK 36 AUDIO
    TITLE "9:cjc034_00051"
    INDEX 01 00:26:11
  TRACK 37 AUDIO
    TITLE "0:"
    INDEX 01 00:27:28
  TRACK 38 AUDIO
    TITLE "10:cjc034_00052"
    INDEX 01 00:28:12
  TRACK 39 AUDIO
    TITLE "0:"
    INDEX 01 00:29:15
  TRACK 40 AUDIO
    TITLE "9:cjc034_00053"
    INDEX 01 00:29:17
  TRACK 41 AUDIO
    TITLE "0:"
    INDEX 01 00:30:42
  TRACK 42 AUDIO
    TITLE "10:cjc034_00054"
    INDEX 01 00:31:27
  TRACK 43 AUDIO
    TITLE "0:"
    INDEX 01 00:33:42
  TRACK 44 AUDIO
    TITLE "9:cjc034_00055"
    INDEX 01 00:33:50
  TRACK 45 AUDIO
    TITLE "0:"
    INDEX 01 00:34:49
  TRACK 46 AUDIO
    TITLE "10:cjc034_00056"
    INDEX 01 00:35:35
  TRACK 47 AUDIO
    TITLE "0:"
    INDEX 01 00:37:01
  TRACK 48 AUDIO
    TITLE "9:cjc034_00057"
    INDEX 01 00:37:05
  TRACK 49 AUDIO
    TITLE "0:"
    INDEX 01 00:38:16
  TRACK 50 AUDIO
    TITLE "10:cjc034_00058"
    INDEX 01 00:38:69
  TRACK 51 AUDIO
    TITLE "0:"
    INDEX 01 00:39:68
  TRACK 52 AUDIO
    TITLE "9:cjc034_00059"
    INDEX 01 00:40:03
  TRACK 53 AUDIO
    TITLE "0:"
    INDEX 01 00:41:08
  TRACK 54 AUDIO
    TITLE "10:cjc034_00060"
    INDEX 01 00:41:63
  TRACK 55 AUDIO
    TITLE "0:"
    INDEX 01 00:43:07
  TRACK 56 AUDIO
    TITLE "9:cjc034_00061"
    INDEX 01 00:43:11
  TRACK 57 AUDIO
    TITLE "0:"
    INDEX 01 00:44:28
  TRACK 58 AUDIO
    TITLE "10:cjc034_00062"
    INDEX 01 00:45:10
  TRACK 59 AUDIO
    TITLE "0:"
    INDEX 01 00:46:09
  TRACK 60 AUDIO
    TITLE "9:cjc034_00063"
    INDEX 01 00:46:15
  TRACK 61 AUDIO
    TITLE "0:"
    INDEX 01 00:47:34
  TRACK 62 AUDIO
    TITLE "10:cjc034_00064"
    INDEX 01 00:48:18
  TRACK 63 AUDIO
    TITLE "0:"
    INDEX 01 00:49:31
  TRACK 64 AUDIO
    TITLE "9:cjc034_00065"
    INDEX 01 00:49:33
  TRACK 65 AUDIO
    TITLE "0:"
    INDEX 01 00:50:39
